<svg width="160" height="144" viewBox="0 0 160 144" fill="none" xmlns="http://www.w3.org/2000/svg">
<path d="M57.8657 70.3329H51.8162C51.7412 70.3329 51.6693 70.3627 51.6163 70.4157C51.5633 70.4687 51.5335 70.5406 51.5334 70.6156V73.5733C51.5335 73.6484 51.5633 73.7203 51.6163 73.7734C51.6693 73.8265 51.7411 73.8564 51.8162 73.8565H54.1761V77.5311C54.1761 77.5311 53.6462 77.7119 52.1812 77.7119C50.4528 77.7119 48.0383 77.0802 48.0383 71.7709C48.0383 66.4605 50.5525 65.7617 52.9129 65.7617C54.956 65.7617 55.8363 66.1216 56.3963 66.2948C56.5723 66.3487 56.7351 66.1736 56.7351 66.0173L57.41 63.1597C57.41 63.0867 57.3852 62.9985 57.3019 62.9387C57.0745 62.7765 55.6868 62 52.1812 62C48.1426 62 44 63.7184 44 71.9779C44 80.2381 48.743 81.4688 52.7397 81.4688C56.049 81.4688 58.0565 80.0546 58.0565 80.0546C58.1393 80.0087 58.1483 79.8932 58.1483 79.8401V70.6154C58.1483 70.4595 58.0217 70.3329 57.8657 70.3329ZM89.0426 62.9897C89.0429 62.9525 89.0359 62.9157 89.0219 62.8813C89.008 62.8469 88.9874 62.8156 88.9613 62.7892C88.9352 62.7628 88.9041 62.7418 88.8699 62.7274C88.8357 62.7131 88.7989 62.7056 88.7618 62.7055H85.3554C85.3182 62.7056 85.2814 62.713 85.2471 62.7274C85.2128 62.7418 85.1817 62.7627 85.1555 62.7891C85.1293 62.8155 85.1085 62.8468 85.0944 62.8812C85.0803 62.9156 85.0731 62.9525 85.0733 62.9897L85.0742 69.5724H79.7647V62.9897C79.765 62.9525 79.7579 62.9157 79.744 62.8813C79.73 62.8469 79.7093 62.8156 79.6832 62.7892C79.6571 62.7628 79.626 62.7418 79.5918 62.7274C79.5575 62.7131 79.5208 62.7056 79.4837 62.7055H76.0775C76.0025 62.7058 75.9308 62.736 75.878 62.7893C75.8252 62.8426 75.7958 62.9147 75.7962 62.9897V80.8139C75.7962 80.971 75.9225 81.0988 76.0775 81.0988H79.4837C79.6394 81.0988 79.7647 80.9708 79.7647 80.8139V73.1897H85.0742L85.0649 80.8139C85.0649 80.971 85.1914 81.0988 85.3472 81.0988H88.7615C88.9176 81.0988 89.0423 80.9708 89.0426 80.8139V62.9897ZM64.2934 65.3288C64.2934 64.1021 63.3101 63.1109 62.0969 63.1109C60.8849 63.1109 59.9008 64.1021 59.9008 65.3288C59.9008 66.5539 60.8849 67.5477 62.0969 67.5477C63.3101 67.5477 64.2934 66.5539 64.2934 65.3288ZM64.0498 77.054V68.8263C64.05 68.7513 64.0205 68.6793 63.9676 68.626C63.9148 68.5728 63.843 68.5427 63.768 68.5423H60.3725C60.2168 68.5423 60.0774 68.703 60.0774 68.8593V80.6469C60.0774 80.9935 60.2932 81.0963 60.5727 81.0963H63.6319C63.9675 81.0963 64.0498 80.9314 64.0498 80.6415V77.054ZM101.988 68.5691H98.6075C98.4525 68.5691 98.3263 68.6968 98.3263 68.8541V77.5938C98.3263 77.5938 97.4675 78.2222 96.2488 78.2222C95.0301 78.2222 94.7067 77.6692 94.7067 76.4758V68.8541C94.7067 68.6968 94.5807 68.5691 94.4257 68.5691H90.9949C90.8402 68.5691 90.7133 68.6968 90.7133 68.8541V77.0528C90.7133 80.5974 92.6889 81.4646 95.4068 81.4646C97.6363 81.4646 99.4338 80.233 99.4338 80.233C99.4338 80.233 99.5194 80.8819 99.5581 80.959C99.5969 81.0357 99.6978 81.1132 99.8068 81.1132L101.989 81.1036C102.144 81.1036 102.271 80.9756 102.271 80.8191L102.27 68.8542C102.27 68.6968 102.143 68.5691 101.988 68.5691ZM109.893 78.2114C108.721 78.1757 107.925 77.6435 107.925 77.6435V71.9992C107.925 71.9992 108.71 71.5183 109.672 71.4323C110.889 71.3233 112.062 71.691 112.062 74.5945C112.062 77.6564 111.533 78.2607 109.893 78.2114ZM111.226 68.1689C109.306 68.1689 108.001 69.0254 108.001 69.0254V62.9898C108.001 62.8324 107.875 62.7055 107.719 62.7055H104.304C104.266 62.7056 104.23 62.7131 104.195 62.7275C104.161 62.7419 104.13 62.7629 104.104 62.7893C104.078 62.8157 104.057 62.847 104.043 62.8814C104.029 62.9158 104.022 62.9527 104.022 62.9898V80.8139C104.022 80.971 104.148 81.0988 104.304 81.0988H106.674C106.781 81.0988 106.862 81.0438 106.921 80.9476C106.98 80.8518 107.065 80.1258 107.065 80.1258C107.065 80.1258 108.462 81.4495 111.106 81.4495C114.21 81.4495 115.991 79.8749 115.991 74.3809C115.991 68.8867 113.147 68.1689 111.226 68.1689ZM73.8396 68.5408H71.2845L71.2806 65.1651C71.2806 65.0374 71.2148 64.9735 71.0671 64.9735H67.5852C67.4498 64.9735 67.3771 65.0332 67.3771 65.1631V68.6515C67.3771 68.6515 65.6322 69.0726 65.5142 69.1068C65.4554 69.1239 65.4037 69.1596 65.3669 69.2086C65.3301 69.2575 65.3102 69.3172 65.3102 69.3784V71.5705C65.3102 71.7282 65.4361 71.855 65.5919 71.855H67.3771V77.1283C67.3771 81.0453 70.1245 81.4301 71.9786 81.4301C72.8257 81.4301 73.839 81.1582 74.0063 81.0961C74.1075 81.059 74.1663 80.9542 74.1663 80.8406L74.1691 78.4292C74.1691 78.2718 74.0363 78.1448 73.8867 78.1448C73.7378 78.1448 73.3569 78.2054 72.9648 78.2054C71.7098 78.2054 71.2845 77.6218 71.2845 76.8664L71.2843 71.8548H73.8396C73.9954 71.8548 74.1214 71.7279 74.1214 71.5703V68.8245C74.1216 68.7874 74.1145 68.7506 74.1004 68.7162C74.0863 68.6818 74.0656 68.6505 74.0394 68.6242C74.0132 68.5978 73.9821 68.5769 73.9478 68.5626C73.9135 68.5483 73.8768 68.5408 73.8396 68.5408Z" fill="white"/>
</svg>
