<svg width="160" height="144" viewBox="0 0 160 144" fill="none" xmlns="http://www.w3.org/2000/svg">
<path fill-rule="evenodd" clip-rule="evenodd" d="M44 64.5146C44 70.9691 47.5191 76.8663 52.9572 80.7705C53.4368 81.0894 53.6773 81.5677 53.6773 82.2048C53.6773 82.3642 53.5969 82.6033 53.5969 82.7628C53.197 84.3565 52.477 86.9865 52.3973 87.0656C52.3176 87.3047 52.2372 87.4642 52.2372 87.7033C52.2372 88.1816 52.6371 88.5796 53.1173 88.5796C53.2768 88.5796 53.4368 88.4998 53.5969 88.4201L59.2748 85.153C59.6747 84.9145 60.1549 84.7544 60.6345 84.7544C60.875 84.7544 61.1945 84.7544 61.4343 84.8348C64.0739 85.6319 66.9527 86.0299 69.9119 86.0299C84.2269 86.0299 95.8238 76.388 95.8238 64.5146C95.8238 52.6413 84.2269 43 69.9119 43C55.5963 43 44 52.6419 44 64.5146Z" fill="url(#paint0_linear_1_36)"/>
<path fill-rule="evenodd" clip-rule="evenodd" d="M94.0547 98.6914C96.5278 98.6914 98.9213 98.37 101.075 97.7284C101.235 97.648 101.474 97.648 101.713 97.648C102.112 97.648 102.511 97.8087 102.831 97.9695L107.538 100.698C107.697 100.779 107.777 100.859 107.936 100.859C108.335 100.859 108.654 100.538 108.654 100.137C108.654 99.9759 108.575 99.8152 108.575 99.5747C108.575 99.4944 107.936 97.3266 107.617 95.9617C107.538 95.801 107.538 95.6403 107.538 95.4802C107.538 94.9981 107.777 94.5969 108.176 94.2761C112.723 90.9846 115.595 86.0871 115.595 80.6278C115.595 70.6728 105.942 62.5641 94.0547 62.5641C82.1672 62.5641 72.5137 70.5924 72.5137 80.6278C72.5137 90.5828 82.1672 98.6914 94.0547 98.6914Z" fill="url(#paint1_linear_1_36)"/>
<path fill-rule="evenodd" clip-rule="evenodd" d="M64.6043 57.5689C64.6043 59.4275 63.1334 60.8991 61.2742 60.8991C59.415 60.8991 57.9441 59.4275 57.9441 57.5689C57.9441 55.7104 59.4163 54.2388 61.2742 54.2388C63.1321 54.2388 64.6043 55.7104 64.6043 57.5689ZM81.8785 57.5689C81.8785 59.4275 80.4076 60.8991 78.549 60.8991C76.6904 60.8991 75.2189 59.4275 75.2189 57.5689C75.2189 55.7104 76.6904 54.2388 78.549 54.2388C80.4076 54.2388 81.8791 55.7104 81.8791 57.5689" fill="#168743"/>
<path fill-rule="evenodd" clip-rule="evenodd" d="M98.5291 75.0514C98.5291 76.6702 99.8245 77.965 101.443 77.965C103.062 77.965 104.357 76.6702 104.357 75.0514C104.357 73.4327 103.062 72.1379 101.443 72.1379C99.8245 72.1379 98.5291 73.4327 98.5291 75.0514ZM84.1684 75.0514C84.1684 76.6702 85.4632 77.965 87.082 77.965C88.7007 77.965 89.9961 76.6702 89.9961 75.0514C89.9961 73.4327 88.7007 72.1379 87.082 72.1379C85.4632 72.1379 84.1684 73.4327 84.1684 75.0514Z" fill="#919191"/>
<defs>
<linearGradient id="paint0_linear_1_36" x1="2932.94" y1="3905.18" x2="2932.94" y2="60.9267" gradientUnits="userSpaceOnUse">
<stop stop-color="#05CD66"/>
<stop offset="1" stop-color="#9EEE69"/>
</linearGradient>
<linearGradient id="paint1_linear_1_36" x1="2475.68" y1="3286.3" x2="2475.68" y2="61.3233" gradientUnits="userSpaceOnUse">
<stop stop-color="#E4E6E6"/>
<stop offset="1" stop-color="#F0F0F0"/>
</linearGradient>
</defs>
</svg>
